HIERARCHY
ROOT Hips
{
	OFFSET 0.000000 97.167313 0.000000
	CHANNELS 6 Xposition Yposition Zposition Xrotation Yrotation Zrotation
	JOINT Spine
	{
		OFFSET 0.000000 13.784798 0.064400
		CHANNELS 3 Xrotation Yrotation Zrotation
		JOINT Spine1
		{
			OFFSET 0.000000 12.037903 0.404700
			CHANNELS 3 Xrotation Yrotation Zrotation
			JOINT Spine2
			{
				OFFSET 0.000000 17.795601 0.420200
				CHANNELS 3 Xrotation Yrotation Zrotation
				JOINT Neck
				{
					OFFSET 0.000000 39.131302 11.954600
					CHANNELS 3 Xrotation Yrotation Zrotation
					JOINT Head
					{
						OFFSET 0.000000 14.456192 15.627699
						CHANNELS 3 Xrotation Yrotation Zrotation
						JOINT HeadTop_End
						{
							OFFSET 0.000000 15.703506 7.603401
							CHANNELS 3 Xrotation Yrotation Zrotation
							End Site
							{
								OFFSET 0.000000 17.447403 0.000000
							}
						}
					}
				}
				JOINT LeftShoulder
				{
					OFFSET 17.399500 24.608795 1.168800
					CHANNELS 3 Xrotation Yrotation Zrotation
					JOINT LeftArm
					{
						OFFSET 18.980635 5.765305 1.818600
						CHANNELS 3 Xrotation Yrotation Zrotation
						JOINT LeftForeArm
						{
							OFFSET 49.290169 0.000000 0.000000
							CHANNELS 3 Xrotation Yrotation Zrotation
							JOINT LeftHand
							{
								OFFSET 31.562012 0.000000 0.000000
								CHANNELS 3 Xrotation Yrotation Zrotation
								JOINT LeftHandThumb1
								{
									OFFSET 6.133995 -4.388519 7.076070
									CHANNELS 3 Xrotation Yrotation Zrotation
									JOINT LeftHandThumb2
									{
										OFFSET 6.037666 -3.485840 3.485847
										CHANNELS 3 Xrotation Yrotation Zrotation
										JOINT LeftHandThumb3
										{
											OFFSET 6.496506 -3.750763 3.750761
											CHANNELS 3 Xrotation Yrotation Zrotation
											JOINT LeftHandThumb4
											{
												OFFSET 5.616882 -3.242905 3.242910
												CHANNELS 3 Xrotation Yrotation Zrotation
												End Site
												{
													OFFSET -1.254608 7.132141 0.375429
												}
											}
										}
									}
								}
								JOINT LeftHandPinky1
								{
									OFFSET 18.920792 -0.453171 -11.426712
									CHANNELS 3 Xrotation Yrotation Zrotation
									JOINT LeftHandPinky2
									{
										OFFSET 4.919586 0.000000 0.000000
										CHANNELS 3 Xrotation Yrotation Zrotation
										JOINT LeftHandPinky3
										{
											OFFSET 5.233047 0.000000 0.000000
											CHANNELS 3 Xrotation Yrotation Zrotation
											JOINT LeftHandPinky4
											{
												OFFSET 5.571716 0.000000 0.000000
												CHANNELS 3 Xrotation Yrotation Zrotation
												End Site
												{
													OFFSET -3.459808 4.342407 -0.466164
												}
											}
										}
									}
								}
								JOINT LeftHandRing1
								{
									OFFSET 22.726120 -0.094986 -6.500475
									CHANNELS 3 Xrotation Yrotation Zrotation
									JOINT LeftHandRing2
									{
										OFFSET 6.408615 0.000000 0.000000
										CHANNELS 3 Xrotation Yrotation Zrotation
										JOINT LeftHandRing3
										{
											OFFSET 6.150223 0.000000 0.000000
											CHANNELS 3 Xrotation Yrotation Zrotation
											JOINT LeftHandRing4
											{
												OFFSET 6.145386 0.000000 0.000000
												CHANNELS 3 Xrotation Yrotation Zrotation
												End Site
												{
													OFFSET -3.671402 4.923981 -0.202372
												}
											}
										}
									}
								}
								JOINT LeftHandMiddle1
								{
									OFFSET 23.373947 0.000000 0.000001
									CHANNELS 3 Xrotation Yrotation Zrotation
									JOINT LeftHandMiddle2
									{
										OFFSET 6.996567 0.000000 0.000000
										CHANNELS 3 Xrotation Yrotation Zrotation
										JOINT LeftHandMiddle3
										{
											OFFSET 7.015945 0.000000 0.000000
											CHANNELS 3 Xrotation Yrotation Zrotation
											JOINT LeftHandMiddle4
											{
												OFFSET 7.721573 0.000000 0.000000
												CHANNELS 3 Xrotation Yrotation Zrotation
												End Site
												{
													OFFSET -4.651108 6.158463 0.251582
												}
											}
										}
									}
								}
								JOINT LeftHandIndex1
								{
									OFFSET 21.310577 -0.490082 6.209344
									CHANNELS 3 Xrotation Yrotation Zrotation
									JOINT LeftHandIndex2
									{
										OFFSET 7.536453 0.000000 0.000000
										CHANNELS 3 Xrotation Yrotation Zrotation
										JOINT LeftHandIndex3
										{
											OFFSET 7.512344 0.000000 0.000000
											CHANNELS 3 Xrotation Yrotation Zrotation
											JOINT LeftHandIndex4
											{
												OFFSET 10.212402 0.000000 0.000001
												CHANNELS 3 Xrotation Yrotation Zrotation
												End Site
												{
													OFFSET -5.180801 8.690506 1.388433
												}
											}
										}
									}
								}
							}
						}
					}
				}
				JOINT RightShoulder
				{
					OFFSET -17.399500 24.608795 1.168800
					CHANNELS 3 Xrotation Yrotation Zrotation
					JOINT RightArm
					{
						OFFSET -18.980635 5.765305 1.818600
						CHANNELS 3 Xrotation Yrotation Zrotation
						JOINT RightForeArm
						{
							OFFSET -49.290169 0.000000 0.000000
							CHANNELS 3 Xrotation Yrotation Zrotation
							JOINT RightHand
							{
								OFFSET -31.562012 0.000000 0.000000
								CHANNELS 3 Xrotation Yrotation Zrotation
								JOINT RightHandThumb1
								{
									OFFSET -6.133995 -4.388519 7.076070
									CHANNELS 3 Xrotation Yrotation Zrotation
									JOINT RightHandThumb2
									{
										OFFSET -6.037666 -3.485840 3.485847
										CHANNELS 3 Xrotation Yrotation Zrotation
										JOINT RightHandThumb3
										{
											OFFSET -6.496506 -3.750763 3.750761
											CHANNELS 3 Xrotation Yrotation Zrotation
											JOINT RightHandThumb4
											{
												OFFSET -5.616882 -3.242905 3.242910
												CHANNELS 3 Xrotation Yrotation Zrotation
												End Site
												{
													OFFSET 1.254608 7.132141 0.375429
												}
											}
										}
									}
								}
								JOINT RightHandIndex1
								{
									OFFSET -21.310577 -0.490082 6.209344
									CHANNELS 3 Xrotation Yrotation Zrotation
									JOINT RightHandIndex2
									{
										OFFSET -7.536453 0.000000 0.000000
										CHANNELS 3 Xrotation Yrotation Zrotation
										JOINT RightHandIndex3
										{
											OFFSET -7.512344 0.000000 0.000000
											CHANNELS 3 Xrotation Yrotation Zrotation
											JOINT RightHandIndex4
											{
												OFFSET -10.212402 0.000000 0.000001
												CHANNELS 3 Xrotation Yrotation Zrotation
												End Site
												{
													OFFSET 5.180801 8.690506 1.388433
												}
											}
										}
									}
								}
								JOINT RightHandMiddle1
								{
									OFFSET -23.373947 0.000000 0.000001
									CHANNELS 3 Xrotation Yrotation Zrotation
									JOINT RightHandMiddle2
									{
										OFFSET -6.996567 0.000000 0.000000
										CHANNELS 3 Xrotation Yrotation Zrotation
										JOINT RightHandMiddle3
										{
											OFFSET -7.015945 0.000000 0.000000
											CHANNELS 3 Xrotation Yrotation Zrotation
											JOINT RightHandMiddle4
											{
												OFFSET -7.721573 0.000000 0.000000
												CHANNELS 3 Xrotation Yrotation Zrotation
												End Site
												{
													OFFSET 4.651108 6.158463 0.251582
												}
											}
										}
									}
								}
								JOINT RightHandRing1
								{
									OFFSET -22.726120 -0.094986 -6.500475
									CHANNELS 3 Xrotation Yrotation Zrotation
									JOINT RightHandRing2
									{
										OFFSET -6.408615 0.000000 0.000000
										CHANNELS 3 Xrotation Yrotation Zrotation
										JOINT RightHandRing3
										{
											OFFSET -6.150223 0.000000 0.000000
											CHANNELS 3 Xrotation Yrotation Zrotation
											JOINT RightHandRing4
											{
												OFFSET -6.145386 0.000000 0.000000
												CHANNELS 3 Xrotation Yrotation Zrotation
												End Site
												{
													OFFSET 3.671402 4.923981 -0.202372
												}
											}
										}
									}
								}
								JOINT RightHandPinky1
								{
									OFFSET -18.920792 -0.453171 -11.426712
									CHANNELS 3 Xrotation Yrotation Zrotation
									JOINT RightHandPinky2
									{
										OFFSET -4.919586 0.000000 0.000000
										CHANNELS 3 Xrotation Yrotation Zrotation
										JOINT RightHandPinky3
										{
											OFFSET -5.233047 0.000000 0.000000
											CHANNELS 3 Xrotation Yrotation Zrotation
											JOINT RightHandPinky4
											{
												OFFSET -5.571716 0.000000 0.000000
												CHANNELS 3 Xrotation Yrotation Zrotation
												End Site
												{
													OFFSET 3.459808 4.342407 -0.466164
												}
											}
										}
									}
								}
							}
						}
					}
				}
			}
		}
	}
	JOINT LeftUpLeg
	{
		OFFSET 19.899099 -7.885101 -3.429500
		CHANNELS 3 Xrotation Yrotation Zrotation
		JOINT LeftLeg
		{
			OFFSET 1.745560 -36.997807 10.304700
			CHANNELS 3 Xrotation Yrotation Zrotation
			JOINT LeftFoot
			{
				OFFSET -1.745558 -29.803308 -13.615400
				CHANNELS 3 Xrotation Yrotation Zrotation
				JOINT LeftToeBase
				{
					OFFSET 1.181900 -18.539904 15.226099
					CHANNELS 3 Xrotation Yrotation Zrotation
					JOINT LeftToe_End
					{
						OFFSET -0.863701 1.402801 16.534700
						CHANNELS 3 Xrotation Yrotation Zrotation
						End Site
						{
							OFFSET 0.000000 16.616566 0.000000
						}
					}
				}
			}
		}
	}
	JOINT RightUpLeg
	{
		OFFSET -19.899099 -7.885101 -3.429500
		CHANNELS 3 Xrotation Yrotation Zrotation
		JOINT RightLeg
		{
			OFFSET -1.745560 -36.997807 10.304700
			CHANNELS 3 Xrotation Yrotation Zrotation
			JOINT RightFoot
			{
				OFFSET 1.745558 -29.803308 -13.615400
				CHANNELS 3 Xrotation Yrotation Zrotation
				JOINT RightToeBase
				{
					OFFSET -1.181900 -18.539904 15.226099
					CHANNELS 3 Xrotation Yrotation Zrotation
					JOINT RightToe_End
					{
						OFFSET 0.863701 1.402801 16.534700
						CHANNELS 3 Xrotation Yrotation Zrotation
						End Site
						{
							OFFSET 0.000000 16.616566 0.000000
						}
					}
				}
			}
		}
	}
}
MOTION
Frames: 4
Frame Time: 0.033333
-2.485859 57.588554 0.641002 28.218117 -65.408494 24.151516 7.929717 15.584438 -10.415669 7.404951 0.835319 -2.302514 1.944417 -9.788818 6.370395 3.917321 20.787076 5.328971 -16.673089 35.303851 -14.555218 0.000000 0.000000 -0.000000 1.977606 -12.156481 18.691111 -18.168851 -17.214138 -10.023675 -98.645786 -12.134081 -85.319568 0.988661 0.910301 -2.073558 4.766494 -0.870678 -14.442464 15.732309 12.674820 8.828577 63.225142 -8.283635 4.278559 0.000000 0.000001 -0.000001 -8.873300 8.248795 -85.759719 -0.056403 -0.080763 -74.111480 -0.006722 -0.050409 -48.549060 -0.000000 0.000000 -0.000002 -4.477189 3.909205 -90.411583 -1.101343 -0.669939 -62.313298 -0.094565 1.194106 -72.502950 -0.000000 0.000000 0.000005 -5.482408 2.419786 -86.651598 -0.077566 -4.911993 -76.613556 1.501869 0.517867 -67.247392 -0.000001 -0.000000 0.000008 -3.608380 -7.809779 -81.257360 0.011591 -4.383183 -67.458609 1.855987 0.670783 -69.564568 0.000001 0.000001 0.000003 2.605236 -1.058950 2.969414 -20.718638 -20.602227 48.859021 25.415574 13.103385 0.809976 0.060487 2.728824 -1.356006 24.918384 -21.323366 30.343047 9.041938 8.262102 -18.001788 -16.106974 -19.121857 -12.401766 -0.000002 -0.000001 -0.000000 -0.070108 -3.051597 61.424240 0.012465 4.392542 66.608736 1.919200 -0.429138 59.456687 -0.000004 -0.000001 -0.000001 -1.194226 -0.111122 68.270678 -0.075238 4.895612 84.499740 0.931342 -1.345693 32.692523 -0.000003 0.000001 -0.000004 0.881244 -4.595528 79.192321 -0.761470 1.168873 73.263539 -0.077552 -1.182109 39.147127 -0.000000 -0.000004 -0.000000 -3.959714 0.131103 86.763210 -0.035044 0.060274 54.417944 -0.009809 0.036127 25.830490 -0.000003 -0.000004 0.000002 -63.761353 -13.998287 43.745599 64.846171 -25.311069 -3.862949 -9.774420 7.603828 -26.525607 -0.801254 -3.276664 3.900694 0.000000 0.000001 0.000001 -24.096824 -20.411679 -66.012720 2.701133 19.077509 3.905056 4.958311 -9.369937 51.684851 -1.605756 4.428075 16.238498 -0.000000 0.000000 0.000000 
-2.432408 57.638062 0.672962 28.319971 -65.380449 24.228846 7.926339 15.593692 -10.415829 7.405061 0.837827 -2.303114 1.944120 -9.786210 6.370022 3.842275 20.804551 5.366437 -16.754574 35.331879 -14.500416 0.000000 0.000000 -0.000000 1.974585 -12.141868 18.690299 -17.987578 -17.334453 -9.986129 -98.734742 -12.103459 -85.278375 0.957105 1.086741 -2.021799 4.766491 -0.870680 -14.442466 15.638169 12.471195 8.955369 63.077255 -8.223565 4.529097 0.000000 0.000001 -0.000001 -8.872904 8.248957 -85.762020 -0.047983 -0.069045 -74.180287 -0.013655 -0.050592 -48.478231 0.000001 -0.000000 -0.000000 -4.499680 3.883615 -90.080005 -1.090987 -0.662920 -62.379872 -0.098913 1.192413 -72.477965 -0.000001 0.000000 0.000003 -5.528195 2.351828 -86.116985 -0.074278 -4.909747 -76.634900 1.504497 0.519502 -67.265014 -0.000001 -0.000000 0.000004 -3.574045 -7.855754 -80.829162 0.015189 -4.380011 -67.484598 1.855977 0.670784 -69.564568 -0.000004 0.000003 0.000001 2.594109 -1.029115 2.964467 -20.743602 -20.552108 48.967009 25.012441 13.097515 0.901355 0.083843 2.816678 -1.267152 24.918388 -21.323369 30.343051 9.041935 8.262097 -18.001788 -16.106249 -19.123534 -12.401145 0.000003 -0.000001 0.000002 -0.067014 -3.051261 61.293482 0.012368 4.392549 66.153790 1.919199 -0.429140 59.456687 -0.000000 -0.000003 -0.000001 -1.195191 -0.110416 68.264551 -0.075018 4.895482 84.500997 0.931353 -1.345679 32.692516 -0.000000 0.000003 -0.000001 0.838976 -4.600281 79.191959 -0.749175 1.163530 73.334580 -0.073722 -1.187582 39.182698 -0.000001 0.000001 -0.000003 -3.907088 0.143064 86.645253 -0.034158 0.057143 54.433418 -0.001833 0.035993 26.078224 -0.000003 -0.000001 0.000004 -63.863314 -13.982124 43.657166 64.832627 -25.249147 -3.856920 -9.721659 7.562932 -26.482588 -0.801254 -3.276663 3.900695 0.000000 0.000000 0.000001 -24.096994 -20.464705 -65.953591 2.479598 18.967768 3.882892 5.132165 -9.288722 51.717349 -1.605756 4.428076 16.238498 0.000000 0.000001 -0.000000 
-2.380267 57.701431 0.708716 28.580959 -65.379090 24.456826 7.889332 15.654802 -10.434043 7.405727 0.853981 -2.306972 1.942279 -9.769670 6.367670 3.787949 20.818454 5.342612 -16.853746 35.300265 -14.448270 -0.000000 0.000000 -0.000000 1.963345 -12.062038 18.755211 -17.832745 -17.449332 -10.013008 -98.799875 -12.175727 -85.274577 0.936201 1.087465 -2.120873 4.766489 -0.870679 -14.442467 15.653972 12.485463 8.947058 63.107287 -8.241887 4.457441 0.000000 -0.000000 -0.000002 -8.886650 8.242367 -85.680099 -0.047673 -0.068865 -74.006630 -0.014204 -0.050530 -48.394257 0.000001 0.000000 -0.000002 -4.494370 3.888647 -90.160587 -1.091380 -0.667092 -62.343330 -0.098120 1.192608 -72.481032 -0.000000 0.000001 0.000002 -5.501707 2.350923 -86.207854 -0.066815 -4.904612 -76.683497 1.503842 0.519130 -67.260759 0.000001 0.000000 0.000009 -3.592721 -7.840786 -80.963956 0.007254 -4.386979 -67.427252 1.855978 0.670769 -69.564568 -0.000001 0.000001 0.000001 2.589913 -1.015173 2.962220 -20.789747 -20.578477 49.013680 24.723572 13.083866 0.946301 0.096251 2.858186 -1.212765 24.918391 -21.323367 30.343044 9.041933 8.262096 -18.001790 -16.127101 -19.025878 -12.436382 -0.000001 0.000001 0.000001 -0.066003 -3.054950 61.313754 0.012326 4.392539 66.050853 1.919199 -0.429137 59.456681 -0.000003 0.000002 -0.000001 -1.199037 -0.107499 68.239286 -0.081096 4.898558 84.464701 0.931346 -1.345704 32.692509 -0.000001 -0.000002 -0.000004 0.852868 -4.597315 79.157460 -0.748984 1.164899 73.318953 -0.073748 -1.187566 39.266843 -0.000001 -0.000001 -0.000002 -3.875197 0.140741 86.645990 -0.033292 0.054248 54.449039 0.000064 0.035966 26.145308 -0.000001 0.000003 -0.000001 -63.926486 -13.956031 43.608839 64.804965 -25.133136 -3.854911 -9.708811 7.535605 -26.455020 -0.801254 -3.276664 3.900695 -0.000000 0.000000 0.000000 -24.139533 -20.481297 -65.860120 2.221843 18.856810 3.857683 5.336967 -9.206712 51.747443 -1.605756 4.428075 16.238498 0.000000 0.000000 0.000000 
-2.322405 57.770638 0.760573 28.789261 -65.409477 24.620851 7.895089 15.693084 -10.443815 7.406235 0.865972 -2.309836 1.940914 -9.757352 6.365922 3.713132 20.831976 5.362245 -16.943396 35.375814 -14.419214 0.000000 0.000000 -0.000000 1.970971 -11.989071 18.873918 -17.720198 -17.416158 -10.005036 -98.812586 -12.117397 -85.368929 0.918423 1.079931 -2.212124 4.766491 -0.870679 -14.442467 15.650320 12.477297 8.952243 63.118502 -8.252325 4.428925 0.000000 -0.000000 -0.000001 -8.887598 8.241918 -85.674355 -0.047994 -0.068954 -74.272891 -0.013648 -0.050490 -48.366902 -0.000001 0.000003 -0.000000 -4.494633 3.893926 -90.196056 -1.093111 -0.672308 -62.279372 -0.096792 1.193027 -72.487288 -0.000001 -0.000000 0.000005 -5.496905 2.348467 -86.217901 -0.069908 -4.906718 -76.678736 1.507701 0.521535 -67.286673 -0.000001 0.000000 0.000009 -3.584525 -7.840591 -80.970335 0.007084 -4.387123 -67.426111 1.855982 0.670788 -69.564575 -0.000002 0.000001 -0.000001 2.596321 -0.976528 2.957083 -20.835762 -20.514241 49.059347 24.314297 13.064948 1.011267 0.134570 2.920080 -0.965150 24.918393 -21.323362 30.343047 9.041933 8.262097 -18.001792 -16.169320 -18.829739 -12.507296 -0.000003 0.000001 0.000002 -0.107567 -3.028386 61.172615 0.012445 4.392552 66.588525 1.919198 -0.429143 59.456687 -0.000002 -0.000006 -0.000000 -1.207044 -0.101458 68.186899 -0.071139 4.893515 84.524424 0.931345 -1.345699 32.692533 -0.000000 -0.000002 -0.000004 0.843984 -4.597479 79.111322 -0.748848 1.160418 73.371279 -0.073839 -1.187523 39.354259 -0.000002 0.000000 -0.000005 -3.854050 0.146085 86.563659 -0.032429 0.051277 54.464550 0.001852 0.036127 26.378880 -0.000002 -0.000001 0.000004 -63.956252 -13.930563 43.581859 64.810497 -25.021230 -3.853056 -9.724915 7.506536 -26.406198 -0.801254 -3.276659 3.900695 0.000000 -0.000002 0.000000 -24.167214 -20.530541 -65.748528 1.885548 18.762349 3.832558 5.592952 -9.102316 51.786269 -1.605756 4.428075 16.238498 -0.000000 0.000000 0.000001 
